<svg xmlns="http://www.w3.org/2000/svg" viewBox="460 620 2220 670">
  <!-- V -->
  <path d="m 588.28125,631.78125 0.0312,0.1875 -115.65625,0 0,19.59375 0,0.0625 c 90.26259,2.8715 117.21199,45.34099 127.1875,94.78125 l 53.21875,527.74995 175.125,0 374.1563,-642.37495 -175.125,0 -224.87505,386.09375 -38.9375,-386.09375 z" fill="#1A1F71"/>
  <!-- I -->
  <path d="m 1295.6167,631.40088 169.9694,0 -208.4532,642.99782 -169.9694,0 z" fill="#1A1F71"/>
  <!-- S -->
  <path d="m 1507.2767,794.95644 c 25.5058,-101.9596 109.2293,-171.57299 251.7473,-171.57299 133.5021,0 232.5054,83.38126 232.5054,83.38126 l -101.0196,105.83007 c 0,0 -74.6732,-57.72549 -118.658,-57.72549 -58.1586,0 -84.422,21.23645 -89.7952,56.122 -10.7138,69.55953 237.1425,112.13143 229.2985,274.19611 -5.2383,108.2296 -117.2546,213.2636 -245.3333,213.2636 -192.0571,0 -287.024,-76.9673 -287.024,-76.9673 l 86.5882,-123.4684 c 0,0 86.7945,69.524 168.3661,65.7429 55.0339,-2.551 97.451,-23.6415 94.6056,-60.9325 -6.4494,-84.5247 -267.4465,-123.32269 -221.281,-307.86926 z" fill="#1A1F71"/>
  <!-- A -->
  <path d="m 2232.0625,644.21875 -328.7187,630.18745 184.4062,0 47.9688,-96.2187 214.0624,0 7.3438,96.2187 169.9688,0 L 2479,644.21875 c -82.3125,0 -164.625,0 -246.9375,0 z m 89.3125,161.71875 20.3438,266.4375 -153.2188,0 z" fill="#1A1F71"/>
</svg>
